<?xml version="1.0" encoding="UTF-8"?>
<svg version="1.1" xmlns="http://www.w3.org/2000/svg" width="800" height="800">
<path d="M0 0 C4.30851304 0.0389652 8.61612288 -0.01589506 12.92447186 -0.05760109 C21.32293151 -0.12425199 29.71904905 -0.10614941 38.11754109 -0.05597382 C44.9527409 -0.01681647 51.78729883 -0.00994397 58.62258816 -0.02517807 C60.09184333 -0.02842258 60.09184333 -0.02842258 61.59078043 -0.03173264 C63.58171764 -0.03627675 65.57265467 -0.04089848 67.56359152 -0.04559691 C86.1519158 -0.08587157 104.73895783 -0.0295303 123.3270406 0.06142484 C139.21834515 0.13700206 155.10792544 0.13157061 170.99925518 0.0664376 C189.53218222 -0.00947356 208.06410829 -0.03622027 226.59715402 0.01488286 C228.57941732 0.02023032 230.56168077 0.02552314 232.54394436 0.03076065 C234.00624815 0.03467433 234.00624815 0.03467433 235.49809343 0.03866707 C242.31273928 0.05366494 249.12678443 0.034615 255.94135189 0.00194061 C264.26418024 -0.0369516 272.58486338 -0.02082815 280.90739967 0.06220383 C285.1407335 0.10315353 289.37057982 0.12183077 293.60391712 0.07352149 C315.2654533 -0.15258293 329.46700354 2.62843787 347.48260856 15.35776877 C350.66211827 17.57360097 353.94284284 19.45525134 357.33226299 21.3308419 C367.51347262 27.19638105 377.68234306 33.08151322 387.82445049 39.01443565 C396.50207699 44.08968927 405.21565959 49.09924958 413.94945049 54.07693565 C425.80689444 60.83621415 437.62229277 67.66384338 449.38743877 74.58279502 C451.69772535 75.93013196 454.02026485 77.25120804 456.35179424 78.56131065 C476.03266495 89.73579565 490.64920271 107.12563643 496.88695049 129.13943565 C498.96279226 137.62151756 499.09582942 145.80504202 499.08989239 154.50444114 C499.09247871 155.878189 499.09549261 157.2519361 499.09889579 158.62568218 C499.10693776 162.39096759 499.10875379 166.15623392 499.10949326 169.92152691 C499.11134872 173.9864728 499.11889856 178.0514089 499.12562847 182.1163491 C499.13919268 191.00088742 499.14523361 199.88542121 499.14963913 208.76996815 C499.15240495 214.32155551 499.15664294 219.87314113 499.1611433 225.42472732 C499.17333379 240.80683776 499.18363333 256.18894681 499.18701839 271.57106197 C499.18723796 272.55497641 499.18745753 273.53889085 499.18768375 274.55262088 C499.18790202 275.53884038 499.1881203 276.52505988 499.18834519 277.54116482 C499.18878865 279.53949793 499.18923522 281.53783105 499.18968487 283.53616416 C499.1899063 284.52739864 499.19012773 285.51863312 499.19035587 286.539905 C499.19430188 302.59287478 499.2117509 318.64579911 499.23504439 334.69875134 C499.25878709 351.19496338 499.27122158 367.69115264 499.27238631 384.18738204 C499.27330146 393.44335771 499.27901341 402.69927415 499.29720592 411.95523345 C499.31264638 419.83858373 499.31770419 427.72185648 499.30946782 435.60521901 C499.30557517 439.62316418 499.30642273 443.64095343 499.32052517 447.65887916 C499.33334777 451.34608228 499.33199422 455.03301367 499.31993446 458.72021686 C499.31708027 460.66702613 499.32884958 462.61384048 499.34135652 464.56061167 C499.21700112 486.9604329 490.9106395 507.55424107 475.45726299 523.74099815 C464.06320345 534.35415642 449.93163009 541.40322915 436.4483366 548.97810447 C430.21236795 552.48348582 424.01628941 556.05674529 417.82445049 559.63943565 C415.6760616 560.88040521 413.52762412 562.12129069 411.37913799 563.3620919 C410.31920635 563.97455772 409.25927471 564.58702354 408.16722393 565.21804893 C402.76274404 568.3401817 397.35597637 571.45834769 391.94945049 574.57693565 C389.78277299 575.82691686 387.61610632 577.07691686 385.44945049 578.32693565 C346.4494505 600.82693565 346.4494505 600.82693565 343.19896221 602.70217979 C341.03387979 603.95129083 338.86884067 605.20047694 336.70384502 606.44973838 C331.26329343 609.58895874 325.82197834 612.72684128 320.37913799 615.8620919 C309.9273885 621.88440894 299.48645501 627.92362902 289.07445049 634.01443565 C279.80445272 639.43614742 270.49113297 644.7789848 261.16099834 650.09616172 C253.0237495 654.73468854 244.9097869 659.41080799 236.82445049 664.13943565 C224.22941527 671.50424002 211.60991994 678.82510549 198.94945049 686.07693565 C198.05870831 686.5883712 197.16796612 687.09980674 196.25023174 687.62674034 C173.57804279 700.60612913 151.76375052 708.15729051 125.58616924 702.08474815 C110.48327908 697.89941446 97.68033666 689.98925752 84.27318096 682.04519737 C79.22061038 679.05314331 74.14720481 676.09709209 69.07445049 673.13943565 C68.10322247 672.57160362 67.13199444 672.00377159 66.13133526 671.41873252 C58.43189238 666.9223032 50.69591547 662.49159057 42.94945049 658.07693565 C33.22829433 652.53691835 23.54050391 646.94318756 13.88255596 641.29348838 C3.35860425 635.13926823 -7.20435088 629.05323569 -17.76832294 622.96804893 C-23.19714893 619.84013417 -28.62374232 616.70835117 -34.05054951 613.57693565 C-36.21720533 612.32691686 -38.383872 611.07691686 -40.55054951 609.82693565 C-62.21721617 597.32693565 -83.88388284 584.82693565 -105.55054951 572.32693565 C-107.15978291 571.39856895 -107.15978291 571.39856895 -108.80152607 570.45144737 C-110.96502427 569.20322531 -113.12843594 567.95485326 -115.29176044 566.70633018 C-120.75619968 563.55288309 -126.22218596 560.40217469 -131.69117451 557.25662315 C-137.1053586 554.1417933 -142.51442714 551.01825497 -147.91969013 547.88797081 C-150.00020706 546.68450273 -152.08223183 545.48363746 -154.16578388 544.28543174 C-175.63254529 531.93004175 -175.63254529 531.93004175 -183.05054951 525.07693565 C-183.72472919 524.49299034 -184.39890888 523.90904502 -185.09351826 523.3074044 C-198.37815504 511.10198376 -206.87508782 492.53504502 -208.32721126 474.67401242 C-208.43669701 471.01736238 -208.45548528 467.37182449 -208.43822956 463.7135781 C-208.44241284 462.31132503 -208.44789577 460.90907535 -208.45454937 459.50683182 C-208.4688926 455.69048928 -208.46479448 451.87436473 -208.45738256 448.05801082 C-208.45262533 443.92767687 -208.46518323 439.79738838 -208.47539997 435.66706932 C-208.49254393 427.58949867 -208.4934371 419.51200597 -208.48818707 411.43442186 C-208.48413566 404.86449508 -208.48560043 398.29459122 -208.49093533 391.72466552 C-208.49168375 390.78742364 -208.49243217 389.85018175 -208.49320327 388.88453859 C-208.49473485 386.98015023 -208.49627319 385.07576188 -208.49781824 383.17137352 C-208.51152753 365.33597173 -208.50611681 347.50061387 -208.49463303 329.66521309 C-208.48470385 313.37469169 -208.49763868 297.08428392 -208.52156722 280.79378005 C-208.54599316 264.03745555 -208.55555741 247.2811839 -208.54891449 230.52484196 C-208.54542983 221.129155 -208.54760434 211.73355536 -208.56516552 202.33788192 C-208.57993134 194.33905645 -208.58046603 186.3403798 -208.56309461 178.34155711 C-208.55461786 174.26658021 -208.55235284 170.19186868 -208.56774616 166.11690605 C-208.6969069 129.31527893 -208.6969069 129.31527893 -200.30054951 113.70193565 C-199.95693378 113.04185508 -199.61331806 112.38177452 -199.25928974 111.70169151 C-196.16069867 105.93285024 -192.48057923 100.90507512 -188.05054951 96.07693565 C-187.38668232 95.32154502 -186.72281513 94.5661544 -186.03883076 93.78787315 C-174.26894791 81.12600287 -157.4261902 73.63482997 -142.54943562 65.20141685 C-136.32370089 61.66985405 -130.12264321 58.09599544 -123.92554951 54.51443565 C-122.86320087 53.90076133 -121.80085224 53.28708702 -120.70631123 52.65481651 C-118.56316267 51.41675883 -116.42009607 50.17855927 -114.27711201 48.9402169 C-111.01530944 47.05658515 -107.75193107 45.17571244 -104.48804951 43.29568565 C-90.36708204 35.16225761 -90.36708204 35.16225761 -76.28862631 26.95556527 C-74.32728423 25.81134312 -72.36124361 24.67510128 -70.38869321 23.55031151 C-65.11471561 20.53023197 -60.0011014 17.4011284 -54.99083614 13.95946491 C-36.70173294 1.8245995 -21.61671032 -0.28553407 0 0 Z " fill="#249EA0" transform="translate(255.0505495071411,95.92306435108185)"/>
<path d="M0 0 C17.16 0 34.32 0 52 0 C52.495 9.405 52.495 9.405 53 19 C55.0097988 30.3553632 57.64642465 40.22157097 66.984375 47.60546875 C78.78623055 55.77070602 94.26019041 55.43365802 108.02920151 55.41069031 C111.00056483 55.4061415 113.97135435 55.42040893 116.94265747 55.43908691 C123.25342953 55.4755611 129.56413817 55.48952324 135.875 55.5 C143.19225729 55.51216234 150.50922893 55.53406281 157.8263588 55.58000183 C160.72419348 55.59337843 163.62164839 55.58943764 166.51950073 55.58459473 C184.19946626 55.63614734 204.6457966 56.84769601 218 70 C225.56686056 78.82541438 229.24422646 88.47445354 230 100 C232.31 100 234.62 100 237 100 C237.11214844 98.90945313 237.11214844 98.90945313 237.2265625 97.796875 C238.8103446 85.68560014 243.35293939 75.72111866 253 68 C264.5592784 59.24738092 279.56930631 55.88430662 293.82836914 55.81054688 C295.12972305 55.79810692 295.12972305 55.79810692 296.45736694 55.78541565 C298.33484683 55.76807141 300.21234768 55.75288947 302.08986092 55.73963928 C305.07220481 55.71848724 308.0544458 55.69146997 311.03672791 55.66296387 C317.37861145 55.60340731 323.72054477 55.55126486 330.0625 55.5 C337.39226798 55.44049789 344.72198624 55.37787535 352.05166435 55.30812073 C354.96997828 55.28183702 357.88829802 55.26084213 360.80665588 55.2401123 C387.80787071 55.57769873 387.80787071 55.57769873 412 45 C423.92142067 32.55340661 422.9731923 16.42892319 424 0 C440.83 0 457.66 0 475 0 C475.0928125 9.1265625 475.0928125 9.1265625 475.1875 18.4375 C475.21481201 20.31880615 475.24212402 22.2001123 475.27026367 24.13842773 C475.46637201 47.46645336 471.24844838 71.87030125 454.4375 89.25 C428.66145028 114.50564998 389.19987141 112.60996656 355.75073242 112.67993164 C348.30696175 112.69995741 340.86334579 112.75720237 333.41974068 112.80869484 C330.8593154 112.82373717 328.29897123 112.83116828 325.73851013 112.83683777 C298.66203884 112.07079708 298.66203884 112.07079708 275.28515625 123.59765625 C268.11170207 131.29728066 267.89538319 138.2554017 267 149 C244.89 149 222.78 149 200 149 C199.01 141.08 199.01 141.08 198 133 C194.58027171 125.59058871 191.39041652 121.42174883 184 118 C183.37222656 117.70609375 182.74445313 117.4121875 182.09765625 117.109375 C171.29880003 112.60433069 159.8586462 112.69805077 148.36859894 112.66447449 C145.58265578 112.65607523 142.79702356 112.63546963 140.01116943 112.61193848 C134.09082678 112.56403695 128.17045245 112.53092846 122.25 112.5 C115.39406256 112.46409114 108.53827861 112.42181384 101.68248749 112.36405945 C98.96475511 112.34428926 96.24714642 112.33573254 93.52935791 112.32775879 C67.6692473 112.16973205 40.57942234 108.09784587 20.8359375 89.92578125 C-2.39152843 65.56165209 -0.34719433 31.01602708 0 0 Z " fill="#FEFEFE" transform="translate(163,498)"/>
<path d="M0 0 C0.99311188 0.00877167 1.98622375 0.01754333 3.00942993 0.02658081 C19.81691326 0.31346666 19.81691326 0.31346666 25.61279297 4.75097656 C30.76008617 10.21199635 33.56328377 16.63089178 36.13085938 23.61083984 C37.57950568 27.43154968 39.4686297 30.5094252 41.6875 33.9375 C42.38366849 35.09611015 43.07484611 36.2577298 43.76171875 37.421875 C51.53206559 50.41328574 59.57003374 63.24890279 67.55102539 76.11157227 C71.9121912 83.14291925 76.26877059 90.17721356 80.5625 97.25 C80.94204834 97.86834717 81.32159668 98.48669434 81.71264648 99.1237793 C84.25 103.3305556 84.25 103.3305556 84.25 105.5625 C40.73175678 110.42685181 40.73175678 110.42685181 31.48632812 103.08691406 C25.47502807 96.93934313 22.61950264 88.42188636 19.77880859 80.47607422 C17.50898087 74.33987218 13.91675705 69.03873594 10.375 63.5625 C9.24762709 61.73222301 8.12482069 59.89912087 7.0078125 58.0625 C6.31389404 56.93328125 6.31389404 56.93328125 5.60595703 55.78125 C4.60095367 54.13676484 3.63963007 52.46541349 2.70263672 50.78125 C2.2232666 50.0490625 1.74389648 49.316875 1.25 48.5625 C0.59 48.5625 -0.07 48.5625 -0.75 48.5625 C-2.02999088 50.44895235 -3.21028483 52.4031873 -4.34765625 54.37890625 C-4.69795898 54.98230331 -5.04826172 55.58570038 -5.40917969 56.2073822 C-6.55033977 58.17611977 -7.68127444 60.15054049 -8.8125 62.125 C-9.59152046 63.47184389 -10.37138711 64.81819871 -11.15209961 66.1640625 C-12.67820184 68.79555477 -14.20151462 71.42862576 -15.72265625 74.06298828 C-18.65271291 79.12988277 -21.6123544 84.17588863 -24.75415039 89.11474609 C-26.83179108 92.46625776 -26.83179108 92.46625776 -27.98803711 96.01245117 C-29.6566472 100.03030757 -31.06469084 103.10834351 -34.75 105.5625 C-42.93240426 107.81556573 -51.87372399 106.77367741 -60.25 106.375 C-62.62223832 106.30975211 -64.99464792 106.25044324 -67.3671875 106.19726562 C-73.16520801 106.05438399 -78.95681179 105.83727288 -84.75 105.5625 C-80.56835554 97.69259473 -76.07857967 90.06776739 -71.375 82.5 C-70.31563647 80.78687401 -69.25627727 79.07374532 -68.19717407 77.36045837 C-67.10565254 75.59554354 -66.01291231 73.83138828 -64.91992188 72.06738281 C-61.47758378 66.50984994 -58.05146593 60.94232754 -54.625 55.375 C-53.9642749 54.3025 -53.3035498 53.23 -52.62280273 52.125 C-49.4052811 46.89786221 -46.19963893 41.66405778 -43.01953125 36.4140625 C-42.4157666 35.41785889 -41.81200195 34.42165527 -41.18994141 33.39526367 C-40.08438168 31.56873361 -38.98090428 29.74094003 -37.88037109 27.91137695 C-36.81910487 26.15764034 -35.73360277 24.41839784 -34.62744141 22.69262695 C-33.13780103 20.20905358 -31.89033696 17.79395354 -30.64990234 15.18823242 C-23.46100297 1.04799881 -15.24196334 -0.48870425 0 0 Z " fill="#FCFEFE" transform="translate(261.75,283.4375)"/>
<path d="M0 0 C0.99311188 0.00877167 1.98622375 0.01754333 3.00942993 0.02658081 C19.81691326 0.31346666 19.81691326 0.31346666 25.61279297 4.75097656 C30.76008617 10.21199635 33.56328377 16.63089178 36.13085938 23.61083984 C37.57950568 27.43154968 39.4686297 30.5094252 41.6875 33.9375 C42.38366849 35.09611015 43.07484611 36.2577298 43.76171875 37.421875 C51.53206559 50.41328574 59.57003374 63.24890279 67.55102539 76.11157227 C71.9121912 83.14291925 76.26877059 90.17721356 80.5625 97.25 C80.94204834 97.86834717 81.32159668 98.48669434 81.71264648 99.1237793 C84.25 103.3305556 84.25 103.3305556 84.25 105.5625 C40.73175678 110.42685181 40.73175678 110.42685181 31.48632812 103.08691406 C25.47502807 96.93934313 22.61950264 88.42188636 19.77880859 80.47607422 C17.50898087 74.33987218 13.91675705 69.03873594 10.375 63.5625 C9.24762709 61.73222301 8.12482069 59.89912087 7.0078125 58.0625 C6.31389404 56.93328125 6.31389404 56.93328125 5.60595703 55.78125 C4.60095367 54.13676484 3.63963007 52.46541349 2.70263672 50.78125 C2.2232666 50.0490625 1.74389648 49.316875 1.25 48.5625 C0.59 48.5625 -0.07 48.5625 -0.75 48.5625 C-2.0107355 50.22124653 -2.0107355 50.22124653 -3.2265625 52.42578125 C-3.72478516 53.28026855 -4.22300781 54.13475586 -4.73632812 55.01513672 C-5.27708984 55.9588916 -5.81785156 56.90264648 -6.375 57.875 C-7.54382362 59.88437478 -8.71311653 61.89347665 -9.8828125 63.90234375 C-10.50575195 64.97726074 -11.12869141 66.05217773 -11.77050781 67.15966797 C-14.88479443 72.51326033 -18.04190537 77.84127905 -21.20135498 83.16830444 C-22.22900654 84.9020814 -23.2544195 86.63718462 -24.27978516 88.37231445 C-24.91964355 89.45343506 -25.55950195 90.53455566 -26.21875 91.6484375 C-27.06083008 93.0722876 -27.06083008 93.0722876 -27.91992188 94.52490234 C-28.82581055 96.02851318 -28.82581055 96.02851318 -29.75 97.5625 C-30.05709396 98.2621991 -30.36418793 98.96189819 -30.68058777 99.68280029 C-31.837341 102.04843833 -32.84630667 103.73447828 -34.75 105.5625 C-38.56496869 106.67448199 -42.23041916 106.49629966 -46.17578125 106.34375 C-47.27850876 106.33243042 -48.38123627 106.32111084 -49.51737976 106.30944824 C-53.03419862 106.26471804 -56.54691702 106.16435222 -60.0625 106.0625 C-62.44850877 106.0223691 -64.83458154 105.98586766 -67.22070312 105.953125 C-73.06519747 105.86499425 -78.90730587 105.73118959 -84.75 105.5625 C-80.55172264 97.70109314 -76.07920903 90.06877999 -71.375 82.5 C-70.31563647 80.78687401 -69.25627727 79.07374532 -68.19717407 77.36045837 C-67.10565254 75.59554354 -66.01291231 73.83138828 -64.91992188 72.06738281 C-61.47758378 66.50984994 -58.05146593 60.94232754 -54.625 55.375 C-53.9642749 54.3025 -53.3035498 53.23 -52.62280273 52.125 C-49.4052811 46.89786221 -46.19963893 41.66405778 -43.01953125 36.4140625 C-42.4157666 35.41785889 -41.81200195 34.42165527 -41.18994141 33.39526367 C-40.08438168 31.56873361 -38.98090428 29.74094003 -37.88037109 27.91137695 C-36.81910487 26.15764034 -35.73360277 24.41839784 -34.62744141 22.69262695 C-33.13780103 20.20905358 -31.89033696 17.79395354 -30.64990234 15.18823242 C-23.46100297 1.04799881 -15.24196334 -0.48870425 0 0 Z " fill="#FCFEFE" transform="translate(533.75,283.4375)"/>
</svg>
